<svg xmlns="http://www.w3.org/2000/svg" width="102" height="103" fill="none">
  <g filter="url(#a)">
    <ellipse cx="51" cy="48.5" fill="#2D8DAB" rx="48" ry="48.5"/>
  </g>
  <ellipse cx="51" cy="46.35" fill="#3FB7CD" rx="48" ry="46.35"/>
  <ellipse cx="51" cy="46.35" fill="url(#b)" rx="48" ry="46.35"/>
  <ellipse cx="51" cy="47.306" fill="#BABFD4" rx="36.849" ry="36.315"/>
  <ellipse cx="51" cy="49.217" fill="url(#c)" rx="36.849" ry="34.404"/>
  <path fill="#3B4262" d="m67.248 50.087-.572-.563c-1.365-1.346-3.597-1.64-5.263-.695l-3.56 2.005.742-16.059c0-1.346-1.11-2.442-2.478-2.442-.295 0-.579.052-.842.146l.088-.862c0-1.362-1.129-2.47-2.514-2.47-1.282 0-2.357.948-2.493 2.163l-2.283 13.6c-.03.184-.356.166-.39.049l-2.698-10.903a2.418 2.418 0 0 0-2.318-1.722c-.74 0-1.429.328-1.89.9a2.336 2.336 0 0 0-.456 2.02l.524 2.195a2.233 2.233 0 0 0-.883.11 2.257 2.257 0 0 0-1.54 2.502l1.587 8.997c0 3.55.631 6.175 1.162 7.753.301.9.454 1.846.454 2.813 0 .841-.118 1.679-.353 2.488L40.04 66.36c-.07.24-.02.498.131.698.154.2.392.316.646.316h14.546a.81.81 0 0 0 .655-.33.784.784 0 0 0 .112-.718c-.008-.02-.684-2.077-.044-4.875.811-.648 3.65-2.924 4.67-3.842 1.686-1.517 6.304-6.205 6.5-6.404a.788.788 0 0 0-.008-1.118Z"/>
  <defs>
    <linearGradient id="b" x1="3" x2="3" y1="0" y2="92.7" gradientUnits="userSpaceOnUse">
      <stop stop-color="#fff" stop-opacity=".097"/>
      <stop offset="1" stop-color="#fff" stop-opacity=".01"/>
    </linearGradient>
    <linearGradient id="c" x1="87.238" x2="87.238" y1="83.621" y2="15.954" gradientUnits="userSpaceOnUse">
      <stop stop-color="#F3F3F3"/>
      <stop offset="1" stop-color="#DADADA"/>
    </linearGradient>
    <filter id="a" width="102" height="103" x="0" y="0" color-interpolation-filters="sRGB" filterUnits="userSpaceOnUse">
      <feFlood flood-opacity="0" result="BackgroundImageFix"/>
      <feColorMatrix in="SourceAlpha" result="hardAlpha" values="0 0 0 0 0 0 0 0 0 0 0 0 0 0 0 0 0 0 127 0"/>
      <feOffset dy="3"/>
      <feGaussianBlur stdDeviation="1.5"/>
      <feColorMatrix values="0 0 0 0 0 0 0 0 0 0 0 0 0 0 0 0 0 0 0.196706 0"/>
      <feBlend in2="BackgroundImageFix" result="effect1_dropShadow_0_656"/>
      <feBlend in="SourceGraphic" in2="effect1_dropShadow_0_656" result="shape"/>
    </filter>
  </defs>
</svg>